<?xml version="1.0" encoding="utf-8"?>
<!-- Generator: Adobe Illustrator 19.2.1, SVG Export Plug-In . SVG Version: 6.00 Build 0)  -->
<svg version="1.1" id="layer" xmlns="http://www.w3.org/2000/svg" xmlns:xlink="http://www.w3.org/1999/xlink" x="0px" y="0px"
	 viewBox="0 220 635 200" style="enable-background:new 0 0 0	 0;" xml:space="preserve">
<style type="text/css">
	.st0{fill:#F16522;}
</style>
<path d="M61.5,328.8l-27.9-0.2v-44c0-3.5-2.3-4.8-3.2-5.3c-0.9-0.5-1.8-0.7-2.7-0.7c-0.9,0-1.7,0.2-2.7,0.7c-1.3,0.7-3.1,2-3.1,5.3
	v47.6c0,3.1,1.5,5.6,3,6.6c1,0.8,3.4,1.7,4.8,1.7c0.1,0,0.2,0,0.3,0.1c0.2,0,0.4,0.1,0.6,0.1h30.9c3.2,0,5.7-2.7,5.7-6.1l0-0.3
	c0-0.7,0-1.6-0.4-2.5C65.8,329.8,64,328.8,61.5,328.8 M241.9,279c-3.8,0-6.1,2.1-6.1,5.8v33.7c-5.8-7.5-11.7-15-17.5-22.5
	c-3.9-5-7.8-10.1-11.7-15.1c-1.1-1.5-2.6-2.3-4.8-2.3c-0.8,0-2,0-2.9,0.8c-1.9,1-2.8,2.7-2.8,5.3v49.7c0,3.7,2.1,6,5.5,6h1.6l0.2,0
	c2.3-0.6,4.2-3.3,4.2-5.9v-32.3c9.3,12.2,18.7,24.1,28.6,36.3c0.9,1.4,2.6,2.3,4.4,2.3h0.5c1.2,0,2.6-0.1,3.8-1.1
	c1.8-1.1,2.5-2.5,2.5-5.1v-49.6C247.4,281.5,245.1,279,241.9,279 M281.1,300.7v-11.3h12.1c4.6,0,10.1,1,10.1,5.9
	c0,4.4-4.9,5.5-9,5.7c-1.3,0-2.8,0-4.6-0.1C287.4,300.8,284.4,300.7,281.1,300.7 M306.9,319.4c0,6.4-5.2,10.3-10.1,10.3h-15.7v-17.9
	h15.7C299.1,311.8,306.9,312.4,306.9,319.4 M311.3,305.4c-0.3-0.3-0.6-0.7-1-1c2.1-2.2,4.2-5.8,4.2-9.9c0-9.4-7.5-15.9-18.2-15.9
	h-21.9c-2.9,0-5.2,2.7-5.2,6.1v49.7c0,1.7,0.5,3,1.4,4c1.4,1.6,2.2,2.1,4.7,2.1h23.7c4.8,0,9.8-3.2,12.6-6c1.7-1.7,2.9-3.8,4.2-6.3
	c1.2-2.3,1.9-5,1.9-7.9c0-5.2-1.9-9.8-6-14.4C311.6,305.7,311.5,305.6,311.3,305.4 M372,295c0,4-4.9,5.1-9.1,5.2h-13.5V289l12.6,0
	C366.6,289,372,289.6,372,295 M383.4,295.3c0-10.1-7.6-17.4-18-17.4h-22.5c-1,0-1.4,0.2-2.2,0.7c-2.1,1.3-3.1,3.1-3.1,5.6
	c0,0.3,0,1,0,2.3c0.1,6,0.2,21.9,0.2,48.4c0,3.9,2.2,6.3,5.7,6.3c0.6,0,1.8-0.1,3.1-0.7c2-1.3,2.9-3.1,2.9-5.6v-23.3h7.8
	c0.4,0.6,1,1.6,1.9,3.3c1.9,3.7,5.6,10.6,13.5,23c0.9,1.7,2.8,2.8,4.9,2.8h0.5c0.8,0,2,0,2.9-0.9c1.5-1.3,2.5-2.5,2.5-4.3
	c0-1.4-0.5-2.5-1.2-3.9c-2.7-4.6-5.5-9.1-8.2-13.4c-1.3-2.1-2.6-4.1-3.9-6.3C373.1,311.5,383.4,307.1,383.4,295.3 M412,279.3
	c-0.9-0.5-2-0.8-3-0.8c-1,0-1.8,0.2-2.8,0.7c-1.2,0.7-2.8,1.9-2.8,5.3v50c0,2.5,1,4.3,3.1,5.4c0.9,0.5,1.8,0.7,2.7,0.7
	c1,0,1.8-0.2,2.8-0.7c1.1-0.6,3.1-2.2,3.1-5.6v-49.8C415.1,281.4,413.4,280.1,412,279.3 M476.2,308v1c0,12.8-6.4,19.6-18.5,19.6
	h-9.1v-38.1H459c6,0,9.3,2.6,12.5,5.4C473.6,298,476.2,302.5,476.2,308 M485.8,296.2c-2.1-5.9-5.5-9.8-11.9-13.7
	c-2.7-1.5-5.8-2.4-7.9-3.1c-2-0.6-4.4-0.8-7.7-0.8h-15.6c-0.6,0-1.8,0.1-3,0.7c-1.9,1-2.8,2.8-2.8,5.4v49.7c0,2.5,1.1,4.3,3.2,5.4
	c0.9,0.5,1.7,0.7,2.7,0.7h15.6c2.2,0,4.5-0.2,6.6-0.6c2-0.4,4.3-1.2,6.5-2.1c2.3-0.8,4.6-2.2,6.7-3.9l0.4-0.4
	c1.6-1.6,3.4-3.3,4.9-5.5c3-4.4,4.6-11.2,4.6-18.9l0-1.3C487.8,303.1,487,299.3,485.8,296.2 M551,304.9h-17.8
	c-3.1,0-4.4,1.8-5.1,3.2c-0.5,0.9-0.7,1.8-0.7,2.7c0,1.1,0.5,2,0.9,2.9c0.6,1.2,1.8,2.8,5.1,2.8h11.3l0,2c0,4.8-0.3,5.7-0.3,5.8
	c-0.1,0.1-0.1,0.1-0.2,0.2c-2.1,3-6.6,4.5-13.4,4.5c-5.4,0-9.5-1.9-12.4-5.7c-3.1-4.1-4.6-8.7-4.6-14.5c0-11.5,6.6-18.9,16.8-18.9
	c5.4,0,10.2,1.4,13.8,4.1c1.4,1,2.9,1.6,4.4,1.6c3.2,0,5.7-2.4,5.7-5.4c0-1.5-0.6-3-1.7-4.3l-0.1-0.1c-3.8-3.5-10.7-7.7-22.2-7.7
	c-11,0-20.1,5.5-24.8,15.2c-2.2,4.6-3.4,10-3.4,15.8c0,3.7,0.7,7.1,1.4,9.8c3.1,13,14.3,22,27.1,22c10.4,0,26-3.9,26-14.5l0.2-15.3
	c0-1.8-0.9-3.7-1.7-4.5C554.1,305.4,552.8,304.9,551,304.9 M615.9,328.6c-0.3,0-1,0-2,0c-3.5,0-11.7,0.1-24.5,0.1v-17.3l22.9-0.2
	l0.6,0c0.9,0,2.1,0,3.1-1c1.3-1.1,2-2.7,2-4.9c0-3.3-2.5-6-5.6-6c-0.3,0-1,0-1.9,0c-3.3,0.1-10.1,0.2-21.1,0.2v-9.3h26.5
	c1.5,0,2.6-0.2,3.7-1.2c1.4-1.2,2.3-3.1,2.3-5c0-3.2-2.5-5.6-6-5.6h-32.3c-1.5,0-2.5,0.2-3.9,1.1c-1.4,1-2.1,2.5-2.1,4.7v50
	c0,1.3,0.5,2.3,0.9,3l0.2,0.4c0.7,1.3,1.8,2.7,4.9,2.7h32.3c3.6,0,6-2.3,6-5.9C621.9,331.1,619.4,328.6,615.9,328.6 M93.7,279.7
	c-0.9-0.5-2-0.8-3-0.8c-1,0-1.8,0.2-2.8,0.7c-1.2,0.7-2.8,1.9-2.8,5.3v50c0,2.5,1,4.3,3.1,5.4c0.9,0.5,1.8,0.7,2.7,0.7
	s1.8-0.2,2.8-0.7c1.1-0.6,3.1-2.2,3.1-5.6v-49.8C96.7,281.8,95.1,280.5,93.7,279.7 M147.1,330.6c-11,0-19.9-9.1-19.9-20.3
	c0-11.2,8.9-20.3,19.9-20.3c11,0,19.9,9.1,19.9,20.3C166.9,321.5,158.1,330.6,147.1,330.6 M147.1,278.1c-17.4,0-31.4,14.4-31.4,32.2
	c0,17.8,14.1,32.2,31.4,32.2c17.4,0,31.4-14.4,31.4-32.2C178.5,292.5,164.4,278.1,147.1,278.1"/>
<path id="Combined-Shape" class="st0" d="M176.1,360.1c-0.8,1.5-2,3.2-5.1,3.2H89.3c-3.3,0-4.9-2-5.5-3.1c-0.5-0.9-0.7-1.8-0.7-2.8
	c0-1,0.2-1.9,0.7-2.8c1.1-2.1,2.9-3.2,5.3-3.2H171c3.3,0,4.5,1.6,5.1,2.9c0.5,0.9,0.7,1.8,0.7,2.8
	C176.9,358.1,176.6,359.2,176.1,360.1z M92.1,357.3c0-1.8-1.4-3.2-3.2-3.2c-1.8,0-3.2,1.5-3.2,3.2c0,1.8,1.4,3.2,3.2,3.2
	C90.7,360.6,92.1,359.1,92.1,357.3z M173.9,357.3c0-1.8-1.4-3.2-3.2-3.2c-1.8,0-3.2,1.5-3.2,3.2c0,1.8,1.4,3.2,3.2,3.2
	C172.5,360.6,173.9,359.1,173.9,357.3z"/>
</svg>
